<?xml version="1.0" encoding="utf-8"?>
<Project name="Tutorial_Conpractica" themeId="0" version="65538" templateID="SimpleProjectTemplate">
  <MediaItems>
    <MediaItem id="1" filePath="C:\trabajo\www\conpractica\images\Fireworksjob\header1.png" arWidth="934" arHeight="134" duration="0" songTitle="" songArtist="" songAlbum="" />
    <MediaItem id="2" filePath="C:\trabajo\www\conpractica\otros\guia1.avi" arWidth="976" arHeight="548" duration="42.100000000000001" songTitle="" songArtist="" songAlbum="" />
    <MediaItem id="3" filePath="C:\trabajo\www\conpractica\otros\guia2.avi" arWidth="960" arHeight="556" duration="62.494331099999997" songTitle="" songArtist="" songAlbum="" />
    <MediaItem id="4" filePath="C:\trabajo\www\conpractica\otros\guia3B.avi" arWidth="948" arHeight="596" duration="90.2947846" songTitle="" songArtist="" songAlbum="" />
    <MediaItem id="5" filePath="C:\trabajo\www\conpractica\otros\guia3.avi" arWidth="972" arHeight="576" duration="140.86167810000001" songTitle="" songArtist="" songAlbum="" />
    <MediaItem id="6" filePath="C:\trabajo\www\conpractica\otros\guia4.avi" arWidth="972" arHeight="616" duration="169.0702948" songTitle="" songArtist="" songAlbum="" />
    <MediaItem id="7" filePath="C:\trabajo\www\conpractica\otros\guia5.avi" arWidth="940" arHeight="608" duration="36.235827700000002" songTitle="" songArtist="" songAlbum="" />
    <MediaItem id="8" filePath="C:\trabajo\www\conpractica\otros\guia6.avi" arWidth="936" arHeight="616" duration="164.48979600000001" songTitle="" songArtist="" songAlbum="" />
    <MediaItem id="10" filePath="C:\trabajo\www\conpractica\otros\guia8.wmv" arWidth="640" arHeight="480" duration="84.191000000000003" songTitle="" songArtist="" songAlbum="" />
    <MediaItem id="11" filePath="C:\trabajo\www\conpractica\otros\guia8BIS.avi" arWidth="936" arHeight="612" duration="203.12925179999999" songTitle="" songArtist="" songAlbum="" />
    <MediaItem id="12" filePath="C:\trabajo\www\conpractica\otros\guia9.avi" arWidth="948" arHeight="576" duration="93.718820899999997" songTitle="" songArtist="" songAlbum="" />
    <MediaItem id="13" filePath="C:\Users\Enrique C. Rosales B\Music\Bliss\Final speed.travian.ro.MP3" arWidth="0" arHeight="0" duration="2642.7959999999998" songTitle="" songArtist="" songAlbum="" />
  </MediaItems>
  <Extents>
    <TitleClip extentID="17" gapBefore="0" duration="7">
      <Effects />
      <Transitions>
        <ShapeEffect effectTemplateID="PixelateTransitionTemplate" duration="1.5">
          <BoundProperties />
        </ShapeEffect>
      </Transitions>
      <BoundProperties>
        <BoundPropertyFloatSet Name="diffuseColor">
          <BoundPropertyFloatElement Value="0" />
          <BoundPropertyFloatElement Value="0" />
          <BoundPropertyFloatElement Value="0" />
        </BoundPropertyFloatSet>
        <BoundPropertyFloat Name="transparency" Value="0" />
      </BoundProperties>
    </TitleClip>
    <TitleClip extentID="18" gapBefore="36.672123695010214" duration="4">
      <Effects>
        <TextEffect effectTemplateID="TextEffectFadeZoomTemplate" TextScriptId="9">
          <BoundProperties>
            <BoundPropertyBool Name="automatic" Value="false" />
            <BoundPropertyFloatSet Name="color">
              <BoundPropertyFloatElement Value="1" />
              <BoundPropertyFloatElement Value="1" />
              <BoundPropertyFloatElement Value="1" />
            </BoundPropertyFloatSet>
            <BoundPropertyStringSet Name="family">
              <BoundPropertyStringElement Value="HandelGothic BT" />
            </BoundPropertyStringSet>
            <BoundPropertyBool Name="horizontal" Value="true" />
            <BoundPropertyStringSet Name="justify">
              <BoundPropertyStringElement Value="MIDDLE" />
            </BoundPropertyStringSet>
            <BoundPropertyFloatSet Name="length" />
            <BoundPropertyFloat Name="maxExtent" Value="0" />
            <BoundPropertyFloatSet Name="position">
              <BoundPropertyFloatElement Value="0" />
              <BoundPropertyFloatElement Value="0.31395339965820313" />
              <BoundPropertyFloatElement Value="0.02500000037252903" />
            </BoundPropertyFloatSet>
            <BoundPropertyFloat Name="size" Value="0.60000002384185791" />
            <BoundPropertyStringSet Name="string">
              <BoundPropertyStringElement Value="Inicio de SesiÃ³n" />
            </BoundPropertyStringSet>
            <BoundPropertyString Name="style" Value="Plain" />
            <BoundPropertyFloat Name="transparency" Value="0" />
          </BoundProperties>
        </TextEffect>
      </Effects>
      <Transitions />
      <BoundProperties>
        <BoundPropertyFloatSet Name="diffuseColor">
          <BoundPropertyFloatElement Value="0.75" />
          <BoundPropertyFloatElement Value="1" />
          <BoundPropertyFloatElement Value="0" />
        </BoundPropertyFloatSet>
        <BoundPropertyFloat Name="transparency" Value="1" />
      </BoundProperties>
    </TitleClip>
    <AudioClip extentID="36" gapBefore="1101.3049274139007" mediaItemID="13" inTime="0" outTime="2642.7959999999998" speed="1">
      <Effects>
        <AudioEffect effectTemplateID="AudioFadeEffectTemplate">
          <BoundProperties>
            <BoundPropertyFloat Name="AudioFadeInDuration" Value="5" />
            <BoundPropertyFloat Name="AudioFadeOutDuration" Value="5" />
          </BoundProperties>
        </AudioEffect>
      </Effects>
      <Transitions />
      <BoundProperties>
        <BoundPropertyBool Name="Mute" Value="false" />
        <BoundPropertyFloat Name="Volume" Value="0.17254902422428131" />
      </BoundProperties>
    </AudioClip>
    <VideoClip extentID="19" gapBefore="0" mediaItemID="5" inTime="0" outTime="0" speed="1">
      <Effects />
      <Transitions>
        <ShaderEffect effectTemplateID="DissolveTransitionTemplate" duration="1.5">
          <BoundProperties />
        </ShaderEffect>
      </Transitions>
      <BoundProperties>
        <BoundPropertyBool Name="Mute" Value="false" />
        <BoundPropertyInt Name="rotateStepNinety" Value="0" />
        <BoundPropertyFloat Name="Volume" Value="1" />
      </BoundProperties>
    </VideoClip>
    <TitleClip extentID="20" gapBefore="0" duration="7">
      <Effects />
      <Transitions>
        <ShapeEffect effectTemplateID="PixelateTransitionTemplate" duration="1.5">
          <BoundProperties />
        </ShapeEffect>
      </Transitions>
      <BoundProperties>
        <BoundPropertyFloatSet Name="diffuseColor">
          <BoundPropertyFloatElement Value="0" />
          <BoundPropertyFloatElement Value="0" />
          <BoundPropertyFloatElement Value="0" />
        </BoundPropertyFloatSet>
        <BoundPropertyFloat Name="transparency" Value="0" />
      </BoundProperties>
    </TitleClip>
    <TitleClip extentID="21" gapBefore="62.494331099999997" duration="4">
      <Effects>
        <TextEffect effectTemplateID="TextEffectFadeZoomTemplate" TextScriptId="9">
          <BoundProperties>
            <BoundPropertyBool Name="automatic" Value="false" />
            <BoundPropertyFloatSet Name="color">
              <BoundPropertyFloatElement Value="1" />
              <BoundPropertyFloatElement Value="1" />
              <BoundPropertyFloatElement Value="1" />
            </BoundPropertyFloatSet>
            <BoundPropertyStringSet Name="family">
              <BoundPropertyStringElement Value="HandelGothic BT" />
            </BoundPropertyStringSet>
            <BoundPropertyBool Name="horizontal" Value="true" />
            <BoundPropertyStringSet Name="justify">
              <BoundPropertyStringElement Value="MIDDLE" />
            </BoundPropertyStringSet>
            <BoundPropertyFloatSet Name="length" />
            <BoundPropertyFloat Name="maxExtent" Value="0" />
            <BoundPropertyFloatSet Name="position">
              <BoundPropertyFloatElement Value="0.15720510482788086" />
              <BoundPropertyFloatElement Value="1.4825581312179565" />
              <BoundPropertyFloatElement Value="0.02500000037252903" />
            </BoundPropertyFloatSet>
            <BoundPropertyFloat Name="size" Value="0.60000002384185791" />
            <BoundPropertyStringSet Name="string">
              <BoundPropertyStringElement Value="Altas y " />
              <BoundPropertyStringElement Value="modificaciones " />
              <BoundPropertyStringElement Value="de programas " />
              <BoundPropertyStringElement Value="educativos" />
            </BoundPropertyStringSet>
            <BoundPropertyString Name="style" Value="Plain" />
            <BoundPropertyFloat Name="transparency" Value="0" />
          </BoundProperties>
        </TextEffect>
      </Effects>
      <Transitions />
      <BoundProperties>
        <BoundPropertyFloatSet Name="diffuseColor">
          <BoundPropertyFloatElement Value="0.75" />
          <BoundPropertyFloatElement Value="1" />
          <BoundPropertyFloatElement Value="0" />
        </BoundPropertyFloatSet>
        <BoundPropertyFloat Name="transparency" Value="1" />
      </BoundProperties>
    </TitleClip>
    <TitleClip extentID="39" gapBefore="0" duration="15">
      <Effects />
      <Transitions>
        <ShapeEffect effectTemplateID="PixelateTransitionTemplate" duration="1.5">
          <BoundProperties />
        </ShapeEffect>
      </Transitions>
      <BoundProperties>
        <BoundPropertyFloatSet Name="diffuseColor">
          <BoundPropertyFloatElement Value="0" />
          <BoundPropertyFloatElement Value="0" />
          <BoundPropertyFloatElement Value="0" />
        </BoundPropertyFloatSet>
        <BoundPropertyFloat Name="transparency" Value="0" />
      </BoundProperties>
    </TitleClip>
    <VideoClip extentID="5" gapBefore="0" mediaItemID="4" inTime="0" outTime="0" speed="1">
      <Effects />
      <Transitions>
        <ShaderEffect effectTemplateID="DissolveTransitionTemplate" duration="1.5">
          <BoundProperties />
        </ShaderEffect>
      </Transitions>
      <BoundProperties>
        <BoundPropertyBool Name="Mute" Value="false" />
        <BoundPropertyInt Name="rotateStepNinety" Value="0" />
        <BoundPropertyFloat Name="Volume" Value="0.086274512112140656" />
      </BoundProperties>
    </VideoClip>
    <TitleClip extentID="40" gapBefore="92.218820900000082" duration="13.5">
      <Effects>
        <TextEffect effectTemplateID="TextEffectCinematicCaption2LeftTemplate" TextScriptId="13">
          <BoundProperties>
            <BoundPropertyBool Name="automatic" Value="false" />
            <BoundPropertyFloatSet Name="color">
              <BoundPropertyFloatElement Value="1" />
              <BoundPropertyFloatElement Value="1" />
              <BoundPropertyFloatElement Value="1" />
            </BoundPropertyFloatSet>
            <BoundPropertyStringSet Name="family">
              <BoundPropertyStringElement Value="HandelGothic BT" />
            </BoundPropertyStringSet>
            <BoundPropertyBool Name="horizontal" Value="true" />
            <BoundPropertyStringSet Name="justify">
              <BoundPropertyStringElement Value="MIDDLE" />
            </BoundPropertyStringSet>
            <BoundPropertyFloatSet Name="length" />
            <BoundPropertyFloat Name="maxExtent" Value="0" />
            <BoundPropertyFloatSet Name="position">
              <BoundPropertyFloatElement Value="0.10480356216430664" />
              <BoundPropertyFloatElement Value="1.6395348310470581" />
              <BoundPropertyFloatElement Value="0.02500000037252903" />
            </BoundPropertyFloatSet>
            <BoundPropertyFloat Name="size" Value="0.3333333432674408" />
            <BoundPropertyStringSet Name="string">
              <BoundPropertyStringElement Value="Responsable del seguimiento " />
              <BoundPropertyStringElement Value="de prÃ¡cticas" />
              <BoundPropertyStringElement Value="" />
              <BoundPropertyStringElement Value="DGEP" />
              <BoundPropertyStringElement Value="" />
              <BoundPropertyStringElement Value="Jaun de la Vega Pazcual" />
              <BoundPropertyStringElement Value="jpazcual@ucol.mx" />
            </BoundPropertyStringSet>
            <BoundPropertyString Name="style" Value="Plain" />
            <BoundPropertyFloat Name="transparency" Value="0" />
          </BoundProperties>
        </TextEffect>
      </Effects>
      <Transitions />
      <BoundProperties>
        <BoundPropertyFloatSet Name="diffuseColor">
          <BoundPropertyFloatElement Value="0.75" />
          <BoundPropertyFloatElement Value="1" />
          <BoundPropertyFloatElement Value="0" />
        </BoundPropertyFloatSet>
        <BoundPropertyFloat Name="transparency" Value="1" />
      </BoundProperties>
    </TitleClip>
    <VideoClip extentID="23" gapBefore="0" mediaItemID="8" inTime="0" outTime="0" speed="1">
      <Effects />
      <Transitions>
        <ShaderEffect effectTemplateID="DissolveTransitionTemplate" duration="1.5">
          <BoundProperties />
        </ShaderEffect>
      </Transitions>
      <BoundProperties>
        <BoundPropertyBool Name="Mute" Value="false" />
        <BoundPropertyInt Name="rotateStepNinety" Value="0" />
        <BoundPropertyFloat Name="Volume" Value="0.043137256056070328" />
      </BoundProperties>
    </VideoClip>
    <TitleClip extentID="6" gapBefore="0" duration="7">
      <Effects />
      <Transitions>
        <ShapeEffect effectTemplateID="PixelateTransitionTemplate" duration="1.5">
          <BoundProperties />
        </ShapeEffect>
      </Transitions>
      <BoundProperties>
        <BoundPropertyFloatSet Name="diffuseColor">
          <BoundPropertyFloatElement Value="0" />
          <BoundPropertyFloatElement Value="0" />
          <BoundPropertyFloatElement Value="0" />
        </BoundPropertyFloatSet>
        <BoundPropertyFloat Name="transparency" Value="0" />
      </BoundProperties>
    </TitleClip>
    <TitleClip extentID="41" gapBefore="0" duration="30">
      <Effects />
      <Transitions />
      <BoundProperties>
        <BoundPropertyFloatSet Name="diffuseColor">
          <BoundPropertyFloatElement Value="0" />
          <BoundPropertyFloatElement Value="0" />
          <BoundPropertyFloatElement Value="0" />
        </BoundPropertyFloatSet>
        <BoundPropertyFloat Name="transparency" Value="0" />
      </BoundProperties>
    </TitleClip>
    <TitleClip extentID="24" gapBefore="0" duration="7">
      <Effects />
      <Transitions>
        <ShapeEffect effectTemplateID="PixelateTransitionTemplate" duration="1.5">
          <BoundProperties />
        </ShapeEffect>
      </Transitions>
      <BoundProperties>
        <BoundPropertyFloatSet Name="diffuseColor">
          <BoundPropertyFloatElement Value="0" />
          <BoundPropertyFloatElement Value="0" />
          <BoundPropertyFloatElement Value="0" />
        </BoundPropertyFloatSet>
        <BoundPropertyFloat Name="transparency" Value="0" />
      </BoundProperties>
    </TitleClip>
    <TitleClip extentID="7" gapBefore="140.86167810000001" duration="5.5">
      <Effects>
        <TextEffect effectTemplateID="TextEffectFadeZoomTemplate" TextScriptId="9">
          <BoundProperties>
            <BoundPropertyBool Name="automatic" Value="false" />
            <BoundPropertyFloatSet Name="color">
              <BoundPropertyFloatElement Value="1" />
              <BoundPropertyFloatElement Value="1" />
              <BoundPropertyFloatElement Value="1" />
            </BoundPropertyFloatSet>
            <BoundPropertyStringSet Name="family">
              <BoundPropertyStringElement Value="HandelGothic BT" />
            </BoundPropertyStringSet>
            <BoundPropertyBool Name="horizontal" Value="true" />
            <BoundPropertyStringSet Name="justify">
              <BoundPropertyStringElement Value="MIDDLE" />
            </BoundPropertyStringSet>
            <BoundPropertyFloatSet Name="length" />
            <BoundPropertyFloat Name="maxExtent" Value="0" />
            <BoundPropertyFloatSet Name="position">
              <BoundPropertyFloatElement Value="0" />
              <BoundPropertyFloatElement Value="0.31395339965820313" />
              <BoundPropertyFloatElement Value="0.02500000037252903" />
            </BoundPropertyFloatSet>
            <BoundPropertyFloat Name="size" Value="0.60000002384185791" />
            <BoundPropertyStringSet Name="string">
              <BoundPropertyStringElement Value="Alta de " />
              <BoundPropertyStringElement Value="asignaturas" />
            </BoundPropertyStringSet>
            <BoundPropertyString Name="style" Value="Plain" />
            <BoundPropertyFloat Name="transparency" Value="0" />
          </BoundProperties>
        </TextEffect>
      </Effects>
      <Transitions />
      <BoundProperties>
        <BoundPropertyFloatSet Name="diffuseColor">
          <BoundPropertyFloatElement Value="0.75" />
          <BoundPropertyFloatElement Value="1" />
          <BoundPropertyFloatElement Value="0" />
        </BoundPropertyFloatSet>
        <BoundPropertyFloat Name="transparency" Value="1" />
      </BoundProperties>
    </TitleClip>
    <TitleClip extentID="42" gapBefore="0" duration="30">
      <Effects>
        <TextEffect effectTemplateID="TextEffectCinematicCaption2LeftTemplate" TextScriptId="13">
          <BoundProperties>
            <BoundPropertyBool Name="automatic" Value="false" />
            <BoundPropertyFloatSet Name="color">
              <BoundPropertyFloatElement Value="1" />
              <BoundPropertyFloatElement Value="1" />
              <BoundPropertyFloatElement Value="1" />
            </BoundPropertyFloatSet>
            <BoundPropertyStringSet Name="family">
              <BoundPropertyStringElement Value="Segoe UI" />
            </BoundPropertyStringSet>
            <BoundPropertyBool Name="horizontal" Value="true" />
            <BoundPropertyStringSet Name="justify">
              <BoundPropertyStringElement Value="MIDDLE" />
            </BoundPropertyStringSet>
            <BoundPropertyFloatSet Name="length" />
            <BoundPropertyFloat Name="maxExtent" Value="0" />
            <BoundPropertyFloatSet Name="position">
              <BoundPropertyFloatElement Value="-0.034934520721435547" />
              <BoundPropertyFloatElement Value="1.8488372564315796" />
              <BoundPropertyFloatElement Value="0.02500000037252903" />
            </BoundPropertyFloatSet>
            <BoundPropertyFloat Name="size" Value="0.3333333432674408" />
            <BoundPropertyStringSet Name="string">
              <BoundPropertyStringElement Value="Desarrollo y mantenimiento del " />
              <BoundPropertyStringElement Value="sistema en lÃ­nea" />
              <BoundPropertyStringElement Value="" />
              <BoundPropertyStringElement Value="FIE" />
              <BoundPropertyStringElement Value="Enrique Rosales Busquets" />
              <BoundPropertyStringElement Value="erosales@ucol.mx" />
              <BoundPropertyStringElement Value="deimos_erb@hotmail.com" />
              <BoundPropertyStringElement Value="Ext. 53127" />
            </BoundPropertyStringSet>
            <BoundPropertyString Name="style" Value="Plain" />
            <BoundPropertyFloat Name="transparency" Value="0" />
          </BoundProperties>
        </TextEffect>
      </Effects>
      <Transitions />
      <BoundProperties>
        <BoundPropertyFloatSet Name="diffuseColor">
          <BoundPropertyFloatElement Value="0.75" />
          <BoundPropertyFloatElement Value="1" />
          <BoundPropertyFloatElement Value="0" />
        </BoundPropertyFloatSet>
        <BoundPropertyFloat Name="transparency" Value="1" />
      </BoundProperties>
    </TitleClip>
    <TitleClip extentID="25" gapBefore="193.86905202195845" duration="5.5">
      <Effects>
        <TextEffect effectTemplateID="TextEffectFadeZoomTemplate" TextScriptId="9">
          <BoundProperties>
            <BoundPropertyBool Name="automatic" Value="false" />
            <BoundPropertyFloatSet Name="color">
              <BoundPropertyFloatElement Value="1" />
              <BoundPropertyFloatElement Value="1" />
              <BoundPropertyFloatElement Value="1" />
            </BoundPropertyFloatSet>
            <BoundPropertyStringSet Name="family">
              <BoundPropertyStringElement Value="HandelGothic BT" />
            </BoundPropertyStringSet>
            <BoundPropertyBool Name="horizontal" Value="true" />
            <BoundPropertyStringSet Name="justify">
              <BoundPropertyStringElement Value="MIDDLE" />
            </BoundPropertyStringSet>
            <BoundPropertyFloatSet Name="length" />
            <BoundPropertyFloat Name="maxExtent" Value="0" />
            <BoundPropertyFloatSet Name="position">
              <BoundPropertyFloatElement Value="0" />
              <BoundPropertyFloatElement Value="0.31395339965820313" />
              <BoundPropertyFloatElement Value="0.02500000037252903" />
            </BoundPropertyFloatSet>
            <BoundPropertyFloat Name="size" Value="0.60000002384185791" />
            <BoundPropertyStringSet Name="string">
              <BoundPropertyStringElement Value="Captura de " />
              <BoundPropertyStringElement Value="prÃ¡cticas " />
              <BoundPropertyStringElement Value="programadas" />
            </BoundPropertyStringSet>
            <BoundPropertyString Name="style" Value="Plain" />
            <BoundPropertyFloat Name="transparency" Value="0" />
          </BoundProperties>
        </TextEffect>
      </Effects>
      <Transitions />
      <BoundProperties>
        <BoundPropertyFloatSet Name="diffuseColor">
          <BoundPropertyFloatElement Value="0.75" />
          <BoundPropertyFloatElement Value="1" />
          <BoundPropertyFloatElement Value="0" />
        </BoundPropertyFloatSet>
        <BoundPropertyFloat Name="transparency" Value="1" />
      </BoundProperties>
    </TitleClip>
    <VideoClip extentID="8" gapBefore="0" mediaItemID="6" inTime="0" outTime="159.13322432195849" speed="1">
      <Effects />
      <Transitions>
        <ShaderEffect effectTemplateID="DissolveTransitionTemplate" duration="1.5">
          <BoundProperties />
        </ShaderEffect>
      </Transitions>
      <BoundProperties>
        <BoundPropertyBool Name="Mute" Value="false" />
        <BoundPropertyInt Name="rotateStepNinety" Value="0" />
        <BoundPropertyFloat Name="Volume" Value="1" />
      </BoundProperties>
    </VideoClip>
    <TitleClip extentID="9" gapBefore="1.5" duration="5.5">
      <Effects>
        <TextEffect effectTemplateID="TextEffectBigZoomTemplate" TextScriptId="10">
          <BoundProperties>
            <BoundPropertyBool Name="automatic" Value="false" />
            <BoundPropertyFloatSet Name="color">
              <BoundPropertyFloatElement Value="1" />
              <BoundPropertyFloatElement Value="1" />
              <BoundPropertyFloatElement Value="1" />
            </BoundPropertyFloatSet>
            <BoundPropertyStringSet Name="family">
              <BoundPropertyStringElement Value="HandelGothic BT" />
            </BoundPropertyStringSet>
            <BoundPropertyBool Name="horizontal" Value="true" />
            <BoundPropertyStringSet Name="justify">
              <BoundPropertyStringElement Value="MIDDLE" />
            </BoundPropertyStringSet>
            <BoundPropertyFloatSet Name="length" />
            <BoundPropertyFloat Name="maxExtent" Value="0" />
            <BoundPropertyFloatSet Name="position">
              <BoundPropertyFloatElement Value="-0.19213962554931641" />
              <BoundPropertyFloatElement Value="-0.62790703773498535" />
              <BoundPropertyFloatElement Value="0.02500000037252903" />
            </BoundPropertyFloatSet>
            <BoundPropertyFloat Name="size" Value="0.46666666865348816" />
            <BoundPropertyStringSet Name="string">
              <BoundPropertyStringElement Value="Sistema para el control y " />
              <BoundPropertyStringElement Value="Seguiemnto de PrÃ¡cticas de " />
              <BoundPropertyStringElement Value="Laboratorio, Taller y Campo" />
            </BoundPropertyStringSet>
            <BoundPropertyString Name="style" Value="Bold" />
            <BoundPropertyFloat Name="transparency" Value="0" />
          </BoundProperties>
        </TextEffect>
      </Effects>
      <Transitions />
      <BoundProperties>
        <BoundPropertyFloatSet Name="diffuseColor">
          <BoundPropertyFloatElement Value="0.75" />
          <BoundPropertyFloatElement Value="1" />
          <BoundPropertyFloatElement Value="0" />
        </BoundPropertyFloatSet>
        <BoundPropertyFloat Name="transparency" Value="1" />
      </BoundProperties>
    </TitleClip>
    <VideoClip extentID="27" gapBefore="0" mediaItemID="10" inTime="0" outTime="79.275089196931958" speed="1">
      <Effects />
      <Transitions>
        <ShaderEffect effectTemplateID="DissolveTransitionTemplate" duration="1.5">
          <BoundProperties />
        </ShaderEffect>
      </Transitions>
      <BoundProperties>
        <BoundPropertyBool Name="Mute" Value="false" />
        <BoundPropertyInt Name="rotateStepNinety" Value="0" />
        <BoundPropertyFloat Name="Volume" Value="0.070588238537311554" />
      </BoundProperties>
    </VideoClip>
    <ImageClip extentID="10" gapBefore="0" mediaItemID="1" duration="7">
      <Effects />
      <Transitions>
        <ShapeEffect effectTemplateID="CrossfadeTransitionTemplate" duration="1.5">
          <BoundProperties />
        </ShapeEffect>
      </Transitions>
      <BoundProperties>
        <BoundPropertyInt Name="rotateStepNinety" Value="0" />
      </BoundProperties>
    </ImageClip>
    <VideoClip extentID="28" gapBefore="0" mediaItemID="11" inTime="0" outTime="0" speed="1">
      <Effects />
      <Transitions />
      <BoundProperties>
        <BoundPropertyBool Name="Mute" Value="false" />
        <BoundPropertyInt Name="rotateStepNinety" Value="0" />
        <BoundPropertyFloat Name="Volume" Value="0.086274512112140656" />
      </BoundProperties>
    </VideoClip>
    <VideoClip extentID="11" gapBefore="0" mediaItemID="2" inTime="0" outTime="38.172123695010214" speed="1">
      <Effects />
      <Transitions>
        <ShaderEffect effectTemplateID="BarsVerticalTransitionTemplate" duration="1.5">
          <BoundProperties />
        </ShaderEffect>
      </Transitions>
      <BoundProperties>
        <BoundPropertyBool Name="Mute" Value="false" />
        <BoundPropertyInt Name="rotateStepNinety" Value="0" />
        <BoundPropertyFloat Name="Volume" Value="1" />
      </BoundProperties>
    </VideoClip>
    <TitleClip extentID="29" gapBefore="0" duration="7">
      <Effects />
      <Transitions>
        <ShapeEffect effectTemplateID="PixelateTransitionTemplate" duration="1.5">
          <BoundProperties />
        </ShapeEffect>
      </Transitions>
      <BoundProperties>
        <BoundPropertyFloatSet Name="diffuseColor">
          <BoundPropertyFloatElement Value="0" />
          <BoundPropertyFloatElement Value="0" />
          <BoundPropertyFloatElement Value="0" />
        </BoundPropertyFloatSet>
        <BoundPropertyFloat Name="transparency" Value="0" />
      </BoundProperties>
    </TitleClip>
    <VideoClip extentID="12" gapBefore="0" mediaItemID="3" inTime="0" outTime="0" speed="1">
      <Effects />
      <Transitions>
        <ShaderEffect effectTemplateID="DissolveTransitionTemplate" duration="1.5">
          <BoundProperties />
        </ShaderEffect>
      </Transitions>
      <BoundProperties>
        <BoundPropertyBool Name="Mute" Value="false" />
        <BoundPropertyInt Name="rotateStepNinety" Value="0" />
        <BoundPropertyFloat Name="Volume" Value="1" />
      </BoundProperties>
    </VideoClip>
    <TitleClip extentID="30" gapBefore="162.97979599999996" duration="7">
      <Effects>
        <TextEffect effectTemplateID="TextEffectFadeZoomTemplate" TextScriptId="9">
          <BoundProperties>
            <BoundPropertyBool Name="automatic" Value="false" />
            <BoundPropertyFloatSet Name="color">
              <BoundPropertyFloatElement Value="1" />
              <BoundPropertyFloatElement Value="1" />
              <BoundPropertyFloatElement Value="1" />
            </BoundPropertyFloatSet>
            <BoundPropertyStringSet Name="family">
              <BoundPropertyStringElement Value="HandelGothic BT" />
            </BoundPropertyStringSet>
            <BoundPropertyBool Name="horizontal" Value="true" />
            <BoundPropertyStringSet Name="justify">
              <BoundPropertyStringElement Value="MIDDLE" />
            </BoundPropertyStringSet>
            <BoundPropertyFloatSet Name="length" />
            <BoundPropertyFloat Name="maxExtent" Value="0" />
            <BoundPropertyFloatSet Name="position">
              <BoundPropertyFloatElement Value="0" />
              <BoundPropertyFloatElement Value="1.2906976938247681" />
              <BoundPropertyFloatElement Value="0.02500000037252903" />
            </BoundPropertyFloatSet>
            <BoundPropertyFloat Name="size" Value="0.60000002384185791" />
            <BoundPropertyStringSet Name="string">
              <BoundPropertyStringElement Value="Captura de " />
              <BoundPropertyStringElement Value="prÃ¡cticas " />
              <BoundPropertyStringElement Value="realizadas" />
              <BoundPropertyStringElement Value="MÃ³dulo del " />
              <BoundPropertyStringElement Value="docente" />
            </BoundPropertyStringSet>
            <BoundPropertyString Name="style" Value="Plain" />
            <BoundPropertyFloat Name="transparency" Value="0" />
          </BoundProperties>
        </TextEffect>
      </Effects>
      <Transitions />
      <BoundProperties>
        <BoundPropertyFloatSet Name="diffuseColor">
          <BoundPropertyFloatElement Value="0.75" />
          <BoundPropertyFloatElement Value="1" />
          <BoundPropertyFloatElement Value="0" />
        </BoundPropertyFloatSet>
        <BoundPropertyFloat Name="transparency" Value="1" />
      </BoundProperties>
    </TitleClip>
    <TitleClip extentID="13" gapBefore="0" duration="7">
      <Effects />
      <Transitions>
        <ShapeEffect effectTemplateID="PixelateTransitionTemplate" duration="1.5">
          <BoundProperties />
        </ShapeEffect>
      </Transitions>
      <BoundProperties>
        <BoundPropertyFloatSet Name="diffuseColor">
          <BoundPropertyFloatElement Value="0" />
          <BoundPropertyFloatElement Value="0" />
          <BoundPropertyFloatElement Value="0" />
        </BoundPropertyFloatSet>
        <BoundPropertyFloat Name="transparency" Value="0" />
      </BoundProperties>
    </TitleClip>
    <VideoClip extentID="31" gapBefore="0" mediaItemID="12" inTime="0" outTime="0" speed="1">
      <Effects />
      <Transitions>
        <ShaderEffect effectTemplateID="DissolveTransitionTemplate" duration="1.5">
          <BoundProperties />
        </ShaderEffect>
      </Transitions>
      <BoundProperties>
        <BoundPropertyBool Name="Mute" Value="false" />
        <BoundPropertyInt Name="rotateStepNinety" Value="0" />
        <BoundPropertyFloat Name="Volume" Value="0.11764706671237946" />
      </BoundProperties>
    </VideoClip>
    <TitleClip extentID="14" gapBefore="88.794784600000014" duration="5.5">
      <Effects>
        <TextEffect effectTemplateID="TextEffectFadeZoomTemplate" TextScriptId="9">
          <BoundProperties>
            <BoundPropertyBool Name="automatic" Value="false" />
            <BoundPropertyFloatSet Name="color">
              <BoundPropertyFloatElement Value="1" />
              <BoundPropertyFloatElement Value="1" />
              <BoundPropertyFloatElement Value="1" />
            </BoundPropertyFloatSet>
            <BoundPropertyStringSet Name="family">
              <BoundPropertyStringElement Value="HandelGothic BT" />
            </BoundPropertyStringSet>
            <BoundPropertyBool Name="horizontal" Value="true" />
            <BoundPropertyStringSet Name="justify">
              <BoundPropertyStringElement Value="MIDDLE" />
            </BoundPropertyStringSet>
            <BoundPropertyFloatSet Name="length" />
            <BoundPropertyFloat Name="maxExtent" Value="0" />
            <BoundPropertyFloatSet Name="position">
              <BoundPropertyFloatElement Value="0" />
              <BoundPropertyFloatElement Value="0.31395339965820313" />
              <BoundPropertyFloatElement Value="0.02500000037252903" />
            </BoundPropertyFloatSet>
            <BoundPropertyFloat Name="size" Value="0.60000002384185791" />
            <BoundPropertyStringSet Name="string">
              <BoundPropertyStringElement Value="Alta de docntes" />
            </BoundPropertyStringSet>
            <BoundPropertyString Name="style" Value="Plain" />
            <BoundPropertyFloat Name="transparency" Value="0" />
          </BoundProperties>
        </TextEffect>
      </Effects>
      <Transitions />
      <BoundProperties>
        <BoundPropertyFloatSet Name="diffuseColor">
          <BoundPropertyFloatElement Value="0.75" />
          <BoundPropertyFloatElement Value="1" />
          <BoundPropertyFloatElement Value="0" />
        </BoundPropertyFloatSet>
        <BoundPropertyFloat Name="transparency" Value="1" />
      </BoundProperties>
    </TitleClip>
    <TitleClip extentID="32" gapBefore="0" duration="7">
      <Effects />
      <Transitions>
        <ShapeEffect effectTemplateID="PixelateTransitionTemplate" duration="1.5">
          <BoundProperties />
        </ShapeEffect>
      </Transitions>
      <BoundProperties>
        <BoundPropertyFloatSet Name="diffuseColor">
          <BoundPropertyFloatElement Value="0" />
          <BoundPropertyFloatElement Value="0" />
          <BoundPropertyFloatElement Value="0" />
        </BoundPropertyFloatSet>
        <BoundPropertyFloat Name="transparency" Value="0" />
      </BoundProperties>
    </TitleClip>
    <VideoClip extentID="15" gapBefore="0" mediaItemID="7" inTime="0" outTime="0" speed="1">
      <Effects />
      <Transitions />
      <BoundProperties>
        <BoundPropertyBool Name="Mute" Value="false" />
        <BoundPropertyInt Name="rotateStepNinety" Value="0" />
        <BoundPropertyFloat Name="Volume" Value="1" />
      </BoundProperties>
    </VideoClip>
    <TitleClip extentID="33" gapBefore="279.41434099693197" duration="5.5">
      <Effects>
        <TextEffect effectTemplateID="TextEffectFadeZoomTemplate" TextScriptId="9">
          <BoundProperties>
            <BoundPropertyBool Name="automatic" Value="false" />
            <BoundPropertyFloatSet Name="color">
              <BoundPropertyFloatElement Value="1" />
              <BoundPropertyFloatElement Value="1" />
              <BoundPropertyFloatElement Value="1" />
            </BoundPropertyFloatSet>
            <BoundPropertyStringSet Name="family">
              <BoundPropertyStringElement Value="HandelGothic BT" />
            </BoundPropertyStringSet>
            <BoundPropertyBool Name="horizontal" Value="true" />
            <BoundPropertyStringSet Name="justify">
              <BoundPropertyStringElement Value="MIDDLE" />
            </BoundPropertyStringSet>
            <BoundPropertyFloatSet Name="length" />
            <BoundPropertyFloat Name="maxExtent" Value="0" />
            <BoundPropertyFloatSet Name="position">
              <BoundPropertyFloatElement Value="0" />
              <BoundPropertyFloatElement Value="0.31395339965820313" />
              <BoundPropertyFloatElement Value="0.02500000037252903" />
            </BoundPropertyFloatSet>
            <BoundPropertyFloat Name="size" Value="0.60000002384185791" />
            <BoundPropertyStringSet Name="string">
              <BoundPropertyStringElement Value="Visto Bueno de " />
              <BoundPropertyStringElement Value="prÃ¡cticas " />
              <BoundPropertyStringElement Value="realizadas" />
            </BoundPropertyStringSet>
            <BoundPropertyString Name="style" Value="Plain" />
            <BoundPropertyFloat Name="transparency" Value="0" />
          </BoundProperties>
        </TextEffect>
      </Effects>
      <Transitions />
      <BoundProperties>
        <BoundPropertyFloatSet Name="diffuseColor">
          <BoundPropertyFloatElement Value="0.75" />
          <BoundPropertyFloatElement Value="1" />
          <BoundPropertyFloatElement Value="0" />
        </BoundPropertyFloatSet>
        <BoundPropertyFloat Name="transparency" Value="1" />
      </BoundProperties>
    </TitleClip>
    <ExtentSelector extentID="1" gapBefore="0" primaryTrack="true">
      <Effects />
      <Transitions />
      <BoundProperties />
      <ExtentRefs>
        <ExtentRef id="10" />
        <ExtentRef id="11" />
        <ExtentRef id="17" />
        <ExtentRef id="12" />
        <ExtentRef id="20" />
        <ExtentRef id="19" />
        <ExtentRef id="6" />
        <ExtentRef id="5" />
        <ExtentRef id="13" />
        <ExtentRef id="8" />
        <ExtentRef id="15" />
        <ExtentRef id="24" />
        <ExtentRef id="23" />
        <ExtentRef id="29" />
        <ExtentRef id="27" />
        <ExtentRef id="28" />
        <ExtentRef id="32" />
        <ExtentRef id="31" />
        <ExtentRef id="39" />
        <ExtentRef id="41" />
      </ExtentRefs>
    </ExtentSelector>
    <ExtentSelector extentID="2" gapBefore="0" primaryTrack="false">
      <Effects />
      <Transitions />
      <BoundProperties />
      <ExtentRefs>
        <ExtentRef id="36" />
      </ExtentRefs>
    </ExtentSelector>
    <ExtentSelector extentID="3" gapBefore="0" primaryTrack="false">
      <Effects />
      <Transitions />
      <BoundProperties />
      <ExtentRefs />
    </ExtentSelector>
    <ExtentSelector extentID="4" gapBefore="0" primaryTrack="false">
      <Effects />
      <Transitions />
      <BoundProperties />
      <ExtentRefs>
        <ExtentRef id="9" />
        <ExtentRef id="18" />
        <ExtentRef id="21" />
        <ExtentRef id="7" />
        <ExtentRef id="14" />
        <ExtentRef id="25" />
        <ExtentRef id="30" />
        <ExtentRef id="33" />
        <ExtentRef id="40" />
        <ExtentRef id="42" />
      </ExtentRefs>
    </ExtentSelector>
  </Extents>
  <BoundPlaceholders>
    <BoundPlaceholder placeholderID="SingleExtentView" extentID="0" />
    <BoundPlaceholder placeholderID="Main" extentID="1" />
    <BoundPlaceholder placeholderID="SoundTrack" extentID="2" />
    <BoundPlaceholder placeholderID="Text" extentID="4" />
    <BoundPlaceholder placeholderID="Narration" extentID="3" />
  </BoundPlaceholders>
  <BoundProperties>
    <BoundPropertyFloatSet Name="AspectRatio">
      <BoundPropertyFloatElement Value="1.3333332538604736" />
    </BoundPropertyFloatSet>
    <BoundPropertyFloat Name="SoundTrackMix" Value="0.5" />
  </BoundProperties>
  <ThemeOperationLog themeID="0">
    <MonolithicThemeOperations />
  </ThemeOperationLog>
</Project>